<svg xmlns="http://www.w3.org/2000/svg" viewBox="0 0 71.49 72.18"><g id="Layer_2" data-name="Layer 2"><g id="Layer_1-2" data-name="Layer 1"><path d="M52.41,33.07C64.17,35,71.16,25.72,62.47,13.22h0A28.73,28.73,0,0,0,49.34,3.49c-5.65-2-11.05-1.68-14.46.89C25.17,11.7,36.63,30.48,52.41,33.07ZM42.68,11.54c.71-5.35,9.28-5.47,14.63,1.32l.2,0-.21,0a8.8,8.8,0,0,1,1.83,4.56,4.41,4.41,0,0,1-1.66,3.88C52.46,25.08,41.82,18.06,42.68,11.54Z"/><path d="M70.88,29.47a37.18,37.18,0,0,0-1.44-5.39h0l-.52-1.38a22.22,22.22,0,0,1,1.63,8C70.36,48,45.35,49.08,29.37,32.48,15.63,18.21,17.5-.76,38.15.11L36.27,0a36.5,36.5,0,0,0-5.75.32A37.7,37.7,0,0,0,24,1.86c-1,.37-2.43.93-3.46,1.35C9.19,8.41,8.14,22.88,18.13,36.15,34,57.26,67.34,63.21,71.23,40.4c.13-1.4.22-3.28.26-4.69A38.79,38.79,0,0,0,70.88,29.47Z"/><path d="M65.94,55.31,65.5,56C65.65,55.75,65.79,55.53,65.94,55.31Z"/><path d="M52,63.39c-25.68,3.26-59.68-30-44-50.7l-1.6,2A39.78,39.78,0,0,0,2.19,22C1.66,23.36,1,25.22.59,26.62-5.17,51,32.91,78.87,54.9,66.45a36.64,36.64,0,0,0,5.42-4.27,34.86,34.86,0,0,0,4.15-4.73l1-1.5C61.8,61.13,56.15,62.86,52,63.39Z"/><path d="M0,43.24a35.4,35.4,0,0,0,1.34,4.84,36.19,36.19,0,0,0,2,4.6,37.74,37.74,0,0,0,3,4.87,35,35,0,0,0,2.67,3.21,32.45,32.45,0,0,0,2.79,2.68A36.23,36.23,0,0,0,18,67.68a35.68,35.68,0,0,0,3.44,1.67,32.6,32.6,0,0,0,3.82,1.36,36,36,0,0,0,9.29,1.46c1.37,0,3.21-.09,4.58-.18C22.31,73.05,4.05,59.62,0,43.24Z"/></g></g></svg>