<svg id="Layer_1" data-name="Layer 1" xmlns="http://www.w3.org/2000/svg" viewBox="0 0 87.03 76.34"><path d="M58,36.5l-.63.23c.17-.54.45-1.46.81-2.65L59,31.43,58.65,31a19.59,19.59,0,0,1-3-5.11c-.27-.86-.44-1-1.95-1.89a11.51,11.51,0,0,1-3.58-3.37c-.78-1.15-.85-2.48-.37-2.62a3.06,3.06,0,0,1,1,.28,19.1,19.1,0,0,1,1.84.78,21.53,21.53,0,0,0,2.09.89,33.47,33.47,0,0,1,4.55,2,12.18,12.18,0,0,1,2.35,2.65A41.89,41.89,0,0,1,65,31l.26.69-.46.31c-.32.23-1.55,1.13-2.72,2C59.8,35.69,59.26,36,58,36.5Zm7.57-7.43.86,1.82,1.26-.83c.8-.53,2.11-1.29,2.92-1.7l1.35-.7c-.24-.72-1.85-4.35-2.66-5.9-1.15-2.21-1.64-3.1-1.93-3.52a25.12,25.12,0,0,0-4-3.14L61,13.57l-1.89-1.29c-.64-.44-.84-.49-1-.42a1.82,1.82,0,0,0-.7,1.3,5,5,0,0,0,.89,2.94,24.62,24.62,0,0,0,2.59,3c1.52,1.49,2.23,2.83,3.26,6.24A31.53,31.53,0,0,0,65.56,29.07ZM73.31,31c-.65.85-.64,1.32.68,2.84a7.3,7.3,0,0,1,.5.67h0a13.28,13.28,0,0,1,.8,1.38,37.78,37.78,0,0,0,4.68-6,1.41,1.41,0,0,0,0-1.39,1.37,1.37,0,0,0-1.21-.62,5.82,5.82,0,0,0-2.44.75A13.24,13.24,0,0,0,73.31,31Zm16.27-9.57a14.92,14.92,0,0,0-3,3.36c-.31.44-1.3,2-2.19,3.49-1.48,2.46-2.52,4.11-4.14,6.56-.92,1.39-1.34,1.71-3.74,2.88l-2.14,1-1.71,1.73c-2.48,2.5-3.2,3-7.7,5.26-6.5,3.27-7.09,3.66-9,5.87-.6.7-2,2.15-3,3.25-1.83,1.86-2.14,2-2.39,2a.55.55,0,0,1-.46-.36,1,1,0,0,1,.44-.93A62.35,62.35,0,0,0,55,50.89a26.75,26.75,0,0,1,2-2.13,45.28,45.28,0,0,1,7.15-4c4.51-2.24,5.29-2.77,7.63-5.13.9-.91,1.76-1.81,2.57-2.69a9.06,9.06,0,0,0-.55-1h0a11.76,11.76,0,0,0-.93-1.26A5.2,5.2,0,0,1,71.49,32c0-1.07,1-2.33,3-3.65L75,28a10.08,10.08,0,0,0-2.7.7A61.09,61.09,0,0,0,66,32.55c-.49.37-1.11.8-1.4,1s-1,.73-1.62,1.22A16.47,16.47,0,0,1,57.21,38c-1.19.38-4.77,1.17-8,1.76a46.13,46.13,0,0,0-12.39,3.68,34.42,34.42,0,0,0-10.2,7.28,37.66,37.66,0,0,0-7.28,10.06c-.66,1.3-2,2.68-4.31,6.67A121.8,121.8,0,0,0,6.56,84.31a1.11,1.11,0,0,0,.62,1.44,35.91,35.91,0,0,0,18.18,2.06,1.13,1.13,0,0,0,.92-.8,22.75,22.75,0,0,1,1.41-3.67,38.46,38.46,0,0,1,7.38-9.74,40.66,40.66,0,0,1,9.07-6.3c5.32-2.9,13-7.23,13.93-7.85.29-.19,1.23-.75,2.15-1.26a94.51,94.51,0,0,0,8.25-5.49c1.37-1,3.7-2.63,5.19-3.63A64.5,64.5,0,0,0,79,45.27a57.43,57.43,0,0,0,4.65-4c.83-.89,2.08-3.34,5.12-10.1.63-1.41,1.69-3.69,2.36-5.09,1.35-2.83,2.15-4.5,2.39-5.2a.36.36,0,0,0-.27-.47A4.65,4.65,0,0,0,89.58,21.45ZM55.12,33.78c.07-1.66.05-1.74-.19-2.22a35.45,35.45,0,0,0-4.28-5.45c-.7-.64-.89-.71-2.55-.93-.75-.09-2.13-.29-3.05-.42a18.49,18.49,0,0,0-2.24-.25c-.17,0-.53.88.71,2.14a8.07,8.07,0,0,0,2.93,1.56l1,.3L48,29.6a18.81,18.81,0,0,0,1.92,3,1,1,0,0,1,.12,1.28,17.81,17.81,0,0,0-1.46,4.76,37.71,37.71,0,0,0,5.84-1.23A8.81,8.81,0,0,0,55.12,33.78Z" transform="translate(-6.48 -11.83)"/></svg>