<svg xmlns="http://www.w3.org/2000/svg" viewBox="0 0 88.6 66.68"><g id="Layer_2" data-name="Layer 2"><g id="Layer_1-2" data-name="Layer 1"><path d="M14.74,12.89c-.24-.58,1.26-1,2.55-.12a13.57,13.57,0,0,1,2.08,1.83,45.2,45.2,0,0,1,3.21,3.91c3.18,4.37,4.86,6.49,5.81,7.32.51.44,2.1,1.6,3.54,2.57l3,2-1,.23c-.32.07-1.14.22-1.82.33l-1.29.2-1-.64A57.62,57.62,0,0,0,24,27.19l-1.16-.51L22.3,25.6c-.29-.58-.93-1.7-1.43-2.51s-1.42-2.36-2.05-3.43c-1.46-2.5-2.58-4.35-3.31-5.48A14.89,14.89,0,0,1,14.74,12.89ZM36.62,4a1,1,0,0,0,1-.11,5.78,5.78,0,0,0,.87-.59l.22-.18L37.3,2.18C36.43,1.59,35.24.87,34.65.56A3.81,3.81,0,0,0,33.15,0a.55.55,0,0,0-.47.24.8.8,0,0,0-.11,1A7.37,7.37,0,0,0,36.62,4ZM30.23,23.84c.58.7,1.4,1.72,1.83,2.28a18,18,0,0,0,3.25,3.52L36,30l.13,0a11.61,11.61,0,0,0,4.16-1.5l.4-.27-.38-.32c-.66-.56-2.54-2-3.22-2.38-.23-.15-2-1.86-4.32-4.15-1.86-1.87-4.11-4-4.55-4.42-1.8-1.55-2.92-1.37-3.15-1.37a.58.58,0,0,0-.39.13c-.31.31-.13.74,1,2.32S28.18,21.38,30.23,23.84ZM9.66,18.74c1.24,1.9,2.94,4.83,3.64,6.27l0,.06a5.85,5.85,0,0,0,2.61,3.08,4.16,4.16,0,0,0,1.9,1,47.15,47.15,0,0,1,5.62,1.33c3.11.89,3.63,1,4.25,1h.4l1.23-.05-2.17-1.33a39.66,39.66,0,0,0-4.77-2.62,8.32,8.32,0,0,1-3.79-3.33c-.6-.84-1.72-2.33-2.49-3.31L13.71,17.8a23.42,23.42,0,0,0-3.19-3.57,4.15,4.15,0,0,0-3.26-.82.58.58,0,0,0-.5.63A16.83,16.83,0,0,0,8.07,16.3Zm76.9,41.52c-.25-.54-13-24.15-13.57-25a53.64,53.64,0,0,0-4.33-5.4,61.22,61.22,0,0,0-6.5-5.12,62.31,62.31,0,0,1-5.49-4.18,66.67,66.67,0,0,1-5.12-5,39.52,39.52,0,0,1-3.54-5C46.38,7.88,45.39,6.62,44.49,6a33.83,33.83,0,0,0-4.42-2.2c-.28,0-.29-.06-1.46.75a3.08,3.08,0,0,1-2.3.55,14.14,14.14,0,0,1-3.58-2.05v0a3.75,3.75,0,0,0,.93,2.11,26.05,26.05,0,0,0,3,3.36c4.07,4.19,6.77,8.28,7.6,11.51a8.49,8.49,0,0,1,.31,2.62,7.2,7.2,0,0,1-.93,3.84,9.47,9.47,0,0,1-2.77,3c-1.48.86-3.49,1.39-8.26,2.18h-.11c-5.39.89-5.39.89-8,.08l-.05,0a65.94,65.94,0,0,0-7.64-1.82c-.51-.09-1.27-.62-5.09-3.56-6.35-4.88-8-6.32-10-6.56a2.2,2.2,0,0,0-1.6.39c-.09.12,0,.33.06.49a55.08,55.08,0,0,0,4.28,5c5.53,6,7.59,8.19,8.5,8.89a18.64,18.64,0,0,0,3.95,2C18,37,33,42.64,40.18,44.84c.87.26,2.41.66,3.41.91a95.23,95.23,0,0,1,16.55,5.69,16.09,16.09,0,0,1,5.18,4.45,26.93,26.93,0,0,1,2.17,3.88c.37.79,1.61,4.83,2,6.4,2.88.4,12.73,1.47,19.11-1.59C88.19,63.82,87.56,62.52,86.56,60.26Z"/></g></g></svg>