<svg xmlns="http://www.w3.org/2000/svg" viewBox="0 0 42.93 89.05"><g id="Layer_2" data-name="Layer 2"><g id="Layer_1-2" data-name="Layer 1"><path d="M42.91,43.8a14.39,14.39,0,0,1-.5,3.05c-.39,1.56-.85,3.84-1.07,5.29-.1.68-.26,1.62-.36,2.11-.41,2-1.43,8.27-1.52,9.36a81.47,81.47,0,0,0,0,8.42c.21,2.83.84,8.42,1.18,10.49.18,1.09.47,2.57.73,3.72a1.27,1.27,0,0,1-.91,1.52c-7.32,1.87-15,1.33-19.35.74A1.26,1.26,0,0,1,20,87.38a112,112,0,0,0-2.4-13.92c-.29-1.11-.83-2.72-1.05-3.29a36.35,36.35,0,0,0-3.75-5.93c-2.65-3.7-8.14-13.45-9.32-16.57-.39-1-1.47-5.73-2.1-9.14C1.16,37.35.89,36,.76,35.45S.5,34.17.45,33.82A11.36,11.36,0,0,0,.18,32.4,7.88,7.88,0,0,1,0,30.92c0-.7,0-.81,1-2.74A30.58,30.58,0,0,0,3,23H3L3,23s0-.06,0-.09,0-.05,0-.07c.08-.4.24-1.34.38-2.3a14.9,14.9,0,0,1,.39-2.05.34.34,0,0,1,.2-.19l.16,0a4.28,4.28,0,0,1,2.8,2c1.39,2.35,1.73,5.89,1,10.21-.17,1,0,2,.82,4.81a15.49,15.49,0,0,0,2.66,5.61,2.66,2.66,0,0,0,3.16.53c1-.5,1.77-1.58,2.76-3.72,1.16-2.52,6-17.25,6.81-20.75.05-.23.21-.86.35-1.39.49-1.85.33-3-.8-5.55A14.13,14.13,0,0,0,21.34,6c-1.6-1.9-2.25-3.1-2.47-4.59-.13-.88-.11-.95,0-1.16A.43.43,0,0,1,19.28,0a45,45,0,0,1,5.88,2.4,9,9,0,0,1,3.65,3.7c.44.74,1,1.72,1.31,2.19,2.19,3.62,2.46,4.26,2.46,5.71a51.53,51.53,0,0,1-.78,5.61c-.1.5-.52,2.65-.93,4.77s-.93,4.77-1.15,5.88a20.19,20.19,0,0,0-.43,3.29c0,1.1.06,1.54.31,1.74a.55.55,0,0,0,.52.05c.4-.12.41-.39.41-1a49,49,0,0,1,.74-5.42c.13-.75.4-2.37.6-3.62s.53-3.06.74-4c.11-.56.2-1,.27-1.3.23.66.7,2.24,1.44,5.1.88,3.46,1.29,4.89,2.07,7.3A33.63,33.63,0,0,1,38,38c.1.83.25,1.23.51,1.39a.44.44,0,0,0,.42,0c.56-.21.56-1.09-.91-5.72-.48-1.53-1.07-3.51-1.3-4.39l-.06-.23c.88,1.77,2.25,4.61,2.67,5.61a24.89,24.89,0,0,1,1.66,6c.07.83.21,1.21.47,1.32a.46.46,0,0,0,.49-.11c.26-.22.26-.52.21-1.26l0-.34c.12.23.24.47.32.67A5.49,5.49,0,0,1,42.91,43.8ZM22.58,18.37l-.23.13a11.79,11.79,0,0,0-5.13,5.21c-1.12,2.07-2.89,6.78-2.83,7.36,0,.2,0,.22.31.28a4.89,4.89,0,0,0,2.41-.25c.92-.41,1.6-.91,2.24-2.73C19.69,27.41,22.21,19.67,22.58,18.37Z"/></g></g></svg>