<svg xmlns="http://www.w3.org/2000/svg" viewBox="0 0 14.99 31.1"><g id="Layer_2" data-name="Layer 2"><g id="Layer_1-2" data-name="Layer 1"><path d="M15,15.29a5,5,0,0,1-.17,1.07c-.14.55-.3,1.34-.37,1.85,0,.23-.09.56-.13.73-.14.69-.5,2.89-.53,3.27a28.8,28.8,0,0,0,0,2.94c.08,1,.3,2.94.42,3.67.06.38.16.9.25,1.3a.45.45,0,0,1-.32.53,18.73,18.73,0,0,1-6.76.26.46.46,0,0,1-.38-.4,37.19,37.19,0,0,0-.84-4.86,10.82,10.82,0,0,0-.36-1.15,13.41,13.41,0,0,0-1.31-2.07,41.23,41.23,0,0,1-3.25-5.78,31.46,31.46,0,0,1-.74-3.19C.41,13,.31,12.57.27,12.38a4.28,4.28,0,0,1-.11-.57,4.74,4.74,0,0,0-.1-.49A3.07,3.07,0,0,1,0,10.8c0-.25,0-.28.33-1A10.39,10.39,0,0,0,1,8H1V8c0-.14.09-.47.13-.8a5.47,5.47,0,0,1,.14-.72.16.16,0,0,1,.07-.07h.06a1.51,1.51,0,0,1,1,.71,5.46,5.46,0,0,1,.35,3.57,3.83,3.83,0,0,0,.28,1.67,5.41,5.41,0,0,0,.93,2,.93.93,0,0,0,1.1.19,2.58,2.58,0,0,0,1-1.3c.4-.88,2.09-6,2.38-7.25,0-.08.07-.3.12-.48a2.53,2.53,0,0,0-.28-1.94,4.68,4.68,0,0,0-.83-1.42A3.08,3.08,0,0,1,6.59.48c0-.3,0-.33,0-.4A.15.15,0,0,1,6.73,0,15.39,15.39,0,0,1,8.79.84a3.09,3.09,0,0,1,1.27,1.29l.46.77c.76,1.26.86,1.48.86,2a18.35,18.35,0,0,1-.27,2c0,.17-.19.92-.33,1.67s-.32,1.66-.4,2.05a5.84,5.84,0,0,0-.15,1.14c0,.39,0,.54.11.61a.19.19,0,0,0,.18,0c.14,0,.14-.14.14-.35a18.47,18.47,0,0,1,.26-1.89c.05-.26.14-.83.21-1.26s.19-1.07.26-1.41L11.48,7c.08.23.25.78.5,1.78.31,1.21.46,1.71.73,2.55a12,12,0,0,1,.55,1.95c0,.29.09.43.18.49a.18.18,0,0,0,.15,0c.19-.08.19-.39-.32-2-.17-.54-.37-1.23-.46-1.54l0-.07c.31.61.79,1.6.94,2a8.6,8.6,0,0,1,.58,2.08c0,.29.07.42.16.46a.15.15,0,0,0,.17,0c.09-.08.1-.18.08-.44a.49.49,0,0,1,0-.12l.11.24A1.89,1.89,0,0,1,15,15.29ZM7.89,6.41l-.08,0A4.11,4.11,0,0,0,6,8.28a12.58,12.58,0,0,0-1,2.57c0,.07,0,.08.11.1A1.79,1.79,0,0,0,6,10.86c.32-.14.55-.32.78-.95C6.88,9.57,7.75,6.87,7.89,6.41Z"/></g></g></svg>